<svg id="connectivity" xmlns="http://www.w3.org/2000/svg" width="100" height="70" viewBox="0 0 100 70"><defs><style>.cls-1{fill:none;}.cls-2{fill:#e30a2c;}</style></defs><title>router-2</title><path d="M31.85,65.45H6.45a5.12,5.12,0,0,1-5.1-5.1V9.55a5.12,5.12,0,0,1,5.1-5.1h25.4a5.12,5.12,0,0,1,5.1,5.1v50.8A5.12,5.12,0,0,1,31.85,65.45ZM6.35,7.05a2.48,2.48,0,0,0-2.5,2.5v50.8a2.48,2.48,0,0,0,2.5,2.5h25.4a2.48,2.48,0,0,0,2.5-2.5V9.55a2.48,2.48,0,0,0-2.5-2.5H6.35Z"/><path d="M34.35,17.25H3.85a1.3,1.3,0,0,1,0-2.6h30.5A1.3,1.3,0,1,1,34.35,17.25Zm-15.2-5.1a1.09,1.09,0,0,1-.9-0.4,1.09,1.09,0,0,1-.4-0.9,1.09,1.09,0,0,1,.4-0.9A1.27,1.27,0,0,1,20,10a1,1,0,0,1,.4.9,1.09,1.09,0,0,1-.4.9A1.22,1.22,0,0,1,19.15,12.15Zm15.2,43.2H3.85a1.3,1.3,0,1,1,0-2.6h30.5A1.3,1.3,0,1,1,34.35,55.35Zm-12.7,5.1h-5.1a1.3,1.3,0,0,1,0-2.6h5.1A1.3,1.3,0,0,1,21.65,60.45Z"/><circle class="cls-1" cx="67.65" cy="56.05" r="2"/><circle class="cls-1" cx="74.95" cy="56.05" r="2"/><circle class="cls-1" cx="82.15" cy="56.05" r="2"/><circle class="cls-1" cx="53.15" cy="56.05" r="2"/><circle class="cls-1" cx="89.45" cy="56.05" r="2"/><circle class="cls-1" cx="60.25" cy="56.05" r="2"/><path class="cls-2" d="M92.35,34.75a1.27,1.27,0,0,0,0-1.8,14.61,14.61,0,0,0-20.5,0,1.27,1.27,0,0,0,0,1.8,1.49,1.49,0,0,0,.9.4,1.22,1.22,0,0,0,.9-0.4,11.89,11.89,0,0,1,16.9,0,1.27,1.27,0,0,0,1.8,0h0Z"/><path class="cls-2" d="M97.05,28.65a21,21,0,0,0-29.8,0,1.27,1.27,0,1,0,1.8,1.8,18.59,18.59,0,0,1,26.2,0,1.49,1.49,0,0,0,.9.4,1.22,1.22,0,0,0,.9-0.4A1.27,1.27,0,0,0,97.05,28.65Z"/><path class="cls-2" d="M87.95,39.05a1.27,1.27,0,0,0,0-1.8,8,8,0,0,0-11.2,0,1.27,1.27,0,0,0,0,1.8,1.49,1.49,0,0,0,.9.4,1.22,1.22,0,0,0,.9-0.4,5.31,5.31,0,0,1,7.6,0,1.26,1.26,0,0,0,1.8,0h0Z"/><path class="cls-2" d="M79.85,44.15a2.6,2.6,0,1,0,2.6-2.6A2.52,2.52,0,0,0,79.85,44.15Z"/><path class="cls-2" d="M96.45,48.65H46.25a1.9,1.9,0,0,0-1.9,1.9v10.9a1.9,1.9,0,0,0,1.9,1.9h3.9V64a1.58,1.58,0,0,0,1.6,1.6H55a1.58,1.58,0,0,0,1.6-1.6v-0.6h29.9V64a1.58,1.58,0,0,0,1.6,1.6h3.2a1.58,1.58,0,0,0,1.6-1.6v-0.6h3.9a1.9,1.9,0,0,0,1.9-1.9V50.55A2.66,2.66,0,0,0,96.45,48.65ZM53.15,58a2,2,0,1,1,2-2A2,2,0,0,1,53.15,58Zm7.1,0a2,2,0,1,1,2-2A2,2,0,0,1,60.25,58Zm7.4,0a2,2,0,1,1,2-2A2,2,0,0,1,67.65,58ZM75,58a2,2,0,1,1,2-2A2,2,0,0,1,75,58Zm7.2,0a2,2,0,1,1,2-2A2,2,0,0,1,82.15,58Zm7.3,0a2,2,0,1,1,2-2A2,2,0,0,1,89.45,58Z"/></svg>